<?xml version="1.0" encoding="UTF-8" standalone="no"?><!DOCTYPE svg PUBLIC "-//W3C//DTD SVG 1.1//EN" "http://www.w3.org/Graphics/SVG/1.1/DTD/svg11.dtd"><svg width="100%" height="100%" viewBox="0 0 444 430" version="1.1" xmlns="http://www.w3.org/2000/svg" xmlns:xlink="http://www.w3.org/1999/xlink" xml:space="preserve" xmlns:serif="http://www.serif.com/" style="fill-rule:evenodd;clip-rule:evenodd;stroke-linejoin:round;stroke-miterlimit:2;"><g><path d="M117.293,234.405c-13.386,-18.76 -21.192,-41.294 -21.192,-65.52c-0,-65.26 56.645,-118.242 126.416,-118.242c69.772,-0 126.417,52.982 126.417,118.242c0,24.226 -7.806,46.76 -21.192,65.52c0.501,-17.795 -2.446,-47.259 -23.314,-70.649c-48.645,-54.525 -65.293,-21.724 -65.293,-21.724l-33.236,0c0,0 -16.647,-32.801 -65.293,21.724c-20.867,23.39 -23.814,52.854 -23.313,70.649Z" style="fill:#ffd369;"/><path d="M173.502,194.24l-13.291,-0l0,-6.683l13.291,0l-0,-13.29l6.682,-0l0,13.29l13.291,0l0,6.683l-13.291,-0l0,13.29l-6.682,0l-0,-13.29Z" style="fill:#ffd369;"/><circle cx="272.819" cy="179.604" r="5.337" style="fill:#ffd369;"/><circle cx="261.524" cy="190.899" r="5.337" style="fill:#ffd369;"/><circle cx="272.819" cy="202.193" r="5.337" style="fill:#ffd369;"/><circle cx="284.113" cy="190.899" r="5.337" style="fill:#ffd369;"/><path d="M268.415,337.542c0,5.762 -4.419,11.51 -9.863,12.827l-72.175,17.461c-5.444,1.317 -9.863,-2.292 -9.863,-8.055c-0,-5.762 4.419,-11.509 9.863,-12.826l72.175,-17.461c5.444,-1.317 9.863,2.292 9.863,8.054Z" style="fill:#ffd369;"/><path d="M268.415,304.357c0,5.763 -4.419,11.51 -9.863,12.827l-72.175,17.461c-5.444,1.317 -9.863,-2.292 -9.863,-8.054c-0,-5.762 4.419,-11.51 9.863,-12.827l72.175,-17.461c5.444,-1.317 9.863,2.292 9.863,8.054Z" style="fill:#ffd369;"/><path d="M246.861,377.274c-0,5.762 -4.42,11.509 -9.863,12.826l-29.067,7.032c-5.444,1.317 -9.863,-2.292 -9.863,-8.054c-0,-5.762 4.419,-11.51 9.863,-12.827l29.067,-7.032c5.443,-1.317 9.863,2.292 9.863,8.055Z" style="fill:#ffd369;"/><path d="M229.56,412.704l0,5.913c0,4.131 -3.168,8.251 -7.07,9.195c-3.902,0.944 -7.07,-1.643 -7.07,-5.774l-0,-5.913c-0,-4.13 3.168,-8.25 7.07,-9.194c3.902,-0.944 7.07,1.643 7.07,5.773Z" style="fill:#ffd369;"/><path d="M176.514,293.406l-0,-43.176l14.852,-12.964l62.303,-0l14.746,12.964l0,20.943c0,5.762 -4.419,11.51 -9.863,12.827l-72.175,17.461c-5.444,1.317 -9.863,-2.292 -9.863,-8.055Z" style="fill:#ffd369;"/><g><path d="M113.187,278.216l-41.01,41.009" style="fill:none;"/><path d="M107.728,272.758c3.013,-3.013 7.904,-3.013 10.917,-0c3.012,3.012 3.012,7.904 -0,10.916l-41.009,41.009c-3.013,3.013 -7.904,3.013 -10.917,0c-3.012,-3.012 -3.012,-7.904 0,-10.916l41.009,-41.009Z" style="fill:#ffd369;"/><path d="M67.9,168.885l-57.996,0" style="fill:none;"/><path d="M67.9,161.166c4.261,0 7.72,3.459 7.72,7.719c-0,4.26 -3.459,7.719 -7.72,7.719l-57.996,0c-4.26,0 -7.719,-3.459 -7.719,-7.719c0,-4.26 3.459,-7.719 7.719,-7.719l57.996,0Z" style="fill:#ffd369;"/><path d="M113.187,59.554l-41.01,-41.009" style="fill:none;"/><path d="M118.645,54.096c3.012,3.013 3.012,7.904 -0,10.917c-3.013,3.012 -7.904,3.012 -10.917,-0l-41.009,-41.01c-3.012,-3.012 -3.012,-7.904 0,-10.916c3.013,-3.013 7.904,-3.013 10.917,-0l41.009,41.009Z" style="fill:#ffd369;"/><path d="M331.848,59.554l41.009,-41.009" style="fill:none;"/><path d="M337.306,65.013c-3.012,3.012 -7.904,3.012 -10.916,-0c-3.013,-3.013 -3.013,-7.904 -0,-10.917l41.009,-41.009c3.013,-3.013 7.904,-3.013 10.917,-0c3.012,3.012 3.012,7.904 -0,10.916l-41.01,41.01Z" style="fill:#ffd369;"/><path d="M377.134,168.885l57.996,0" style="fill:none;"/><path d="M377.134,176.604c-4.26,0 -7.719,-3.459 -7.719,-7.719c0,-4.26 3.459,-7.719 7.719,-7.719l57.996,0c4.261,0 7.719,3.459 7.719,7.719c0,4.26 -3.458,7.719 -7.719,7.719l-57.996,0Z" style="fill:#ffd369;"/><path d="M331.848,278.216l41.009,41.009" style="fill:none;"/><path d="M326.39,283.674c-3.013,-3.012 -3.013,-7.904 -0,-10.916c3.012,-3.013 7.904,-3.013 10.916,-0l41.01,41.009c3.012,3.012 3.012,7.904 -0,10.916c-3.013,3.013 -7.904,3.013 -10.917,0l-41.009,-41.009Z" style="fill:#ffd369;"/></g></g></svg>